<?xml version="1.0" encoding="UTF-8" standalone="no"?>
<!-- Created with Inkscape (http://www.inkscape.org/) -->

<svg
   xmlns:dc="http://purl.org/dc/elements/1.1/"
   xmlns:cc="http://creativecommons.org/ns#"
   xmlns:rdf="http://www.w3.org/1999/02/22-rdf-syntax-ns#"
   xmlns:svg="http://www.w3.org/2000/svg"
   xmlns="http://www.w3.org/2000/svg"
   xmlns:sodipodi="http://sodipodi.sourceforge.net/DTD/sodipodi-0.dtd"
   xmlns:inkscape="http://www.inkscape.org/namespaces/inkscape"
   id="svg2"
   version="1.1"
   inkscape:version="0.48.4 r9939"
   width="32.5"
   height="33.75"
   xml:space="preserve"
   sodipodi:docname="logo-onde-comer.svg"><metadata
     id="metadata8"><rdf:RDF><cc:Work
         rdf:about=""><dc:format>image/svg+xml</dc:format><dc:type
           rdf:resource="http://purl.org/dc/dcmitype/StillImage" /><dc:title></dc:title></cc:Work></rdf:RDF></metadata><defs
     id="defs6"><clipPath
       clipPathUnits="userSpaceOnUse"
       id="clipPath18"><path
         d="M 0,6 260,6 260,266 0,266 0,6 z"
         id="path20" /></clipPath><clipPath
       id="clipPath3050"
       clipPathUnits="userSpaceOnUse"><path
         id="path3052"
         d="m 0,6.19922 400,0 0,480 -400,0 0,-480 z" /></clipPath><clipPath
       id="clipPath3113"
       clipPathUnits="userSpaceOnUse"><path
         id="path3115"
         d="m 0,6.55859 340,0 0,390 -340,0 0,-390 z" /></clipPath></defs><sodipodi:namedview
     pagecolor="#ffffff"
     bordercolor="#666666"
     borderopacity="1"
     objecttolerance="10"
     gridtolerance="10"
     guidetolerance="10"
     inkscape:pageopacity="0"
     inkscape:pageshadow="2"
     inkscape:window-width="1024"
     inkscape:window-height="744"
     id="namedview4"
     showgrid="false"
     inkscape:zoom="6.9925926"
     inkscape:cx="-5.7018008"
     inkscape:cy="23.776413"
     inkscape:window-x="0"
     inkscape:window-y="24"
     inkscape:window-maximized="1"
     inkscape:current-layer="g10" /><g
     id="g10"
     inkscape:groupmode="layer"
     inkscape:label="ink_ext_XXXXXX"
     transform="matrix(1.25,0,0,-1.25,0,33.75)"
     style="display:inline"><g
       transform="matrix(0.36190647,0,0,0.30240622,5.5312175,7.8680659)"
       inkscape:label="ink_ext_XXXXXX"
       id="g3042"
       style="fill:#ffffff"><g
         transform="matrix(0.08785746,0,0,0.08785746,2.3929369,3.0124882)"
         id="g3044"
         style="fill:#ffffff"><g
           id="g3046"
           style="fill:#ffffff"><g
             clip-path="url(#clipPath3050)"
             id="g3048"
             style="fill:#ffffff"><path
               id="path3054"
               style="fill:#ffffff;fill-opacity:1;fill-rule:nonzero;stroke:none"
               d="m 0,65.3008 0,-13.6719 393.871,0 0,13.6719 c 0,92.0702 -63.48,169.5702 -148.992,191.0192 l 0,33.008 c 8.051,4.492 13.133,10.543 13.133,18.32 0,19.532 -31.41,28.243 -62.582,28.243 -31.129,0 -62.539,-8.711 -62.539,-28.243 0,-6.718 3.789,-12.148 10,-16.367 l 0,-36.64 C 60.4688,231.09 0,155.148 0,65.3008 z M 195.43,315.34 c 21.09,0 35.191,-4.41 40.429,-7.649 -2.187,-1.371 -5.937,-2.929 -11.058,-4.261 -7.141,-1.91 -17.031,-3.442 -29.371,-3.442 -12.309,0 -22.192,1.532 -29.379,3.442 -5.071,1.332 -8.821,2.89 -11.012,4.261 5.231,3.239 19.34,7.649 40.391,7.649 z m 22.031,-39.328 0,-14.813 c -6.762,0.711 -13.59,1.063 -20.512,1.063 -9.058,0 -17.969,-0.672 -26.679,-1.883 l 0,15.633 47.191,0 z m -56.211,-45 c 11.48,2.5 23.441,3.828 35.699,3.828 12.231,0 24.18,-1.328 35.711,-3.828 C 304.691,215.5 359.879,154.09 365.898,79.0195 l -337.9292,0 C 33.9805,154.09 89.1797,215.5 161.25,231.012 z"
               inkscape:connector-curvature="0" /><path
               id="path3056"
               style="fill:#ffffff;fill-opacity:1;fill-rule:nonzero;stroke:none"
               d="m 71.4492,114.641 c 5.3906,-8.321 14.9219,-13.711 24.211,-13.711 9.6488,0 17.9298,5.59 22.1488,15 9.652,21.48 27.351,37.379 57.39,51.558 11.172,5.313 16.711,16.293 14.102,28.012 -2.973,13.121 -15,22.969 -28.012,22.969 -4.141,0 -8.238,-0.938 -12.148,-2.778 -39.063,-18.472 -65.8597,-43.351 -79.6918,-74.062 -4.0195,-8.981 -3.3203,-18.789 2,-26.988 z m 16.75,18.55 c 11.7617,26.098 35.1988,47.579 69.6918,63.911 1.168,0.546 2.339,0.82 3.398,0.82 3.832,0 7.191,-3.594 7.93,-6.91 0.511,-2.391 -0.239,-3.711 -2.809,-4.922 -23.398,-11.059 -52.23,-28.09 -67.3905,-61.762 -1.289,-2.848 -2.6093,-2.848 -3.3593,-2.848 -2.0704,0 -5.1094,1.481 -6.9493,4.329 -1.5195,2.351 -1.6796,4.769 -0.5117,7.382 z"
               inkscape:connector-curvature="0" /><path
               id="path3058"
               style="fill:#ffffff;fill-opacity:1;fill-rule:nonzero;stroke:none"
               d="m 0.121094,9.98828 394.019996,0 0,27.4219 -394.019996,0 0,-27.4219 z"
               inkscape:connector-curvature="0" /><path
               id="path3060"
               style="fill:#ffffff;fill-opacity:1;fill-rule:nonzero;stroke:none"
               d="m 109.73,480.66 c -10.0816,-15.469 -13.3198,-30.941 -9.609,-48.988 3.75,-18.32 17.688,-34.332 7.609,-53.012 -7.378,-13.629 13.36,-25.738 20.711,-12.109 7.969,14.73 8.829,28.91 4.059,44.847 -6.41,21.481 -15.898,35.903 -2.07,57.153 8.48,13 -12.309,25.039 -20.7,12.109 z"
               inkscape:connector-curvature="0" /><path
               id="path3062"
               style="fill:#ffffff;fill-opacity:1;fill-rule:nonzero;stroke:none"
               d="m 189.73,480.66 c -10.082,-15.469 -13.32,-30.941 -9.609,-48.988 3.75,-18.32 17.688,-34.332 7.609,-53.012 -7.378,-13.629 13.36,-25.738 20.711,-12.109 7.969,14.73 8.829,28.91 4.059,44.847 -6.41,21.481 -15.898,35.903 -2.07,57.153 8.48,13 -12.309,25.039 -20.7,12.109 z"
               inkscape:connector-curvature="0" /><path
               id="path3064"
               style="fill:#ffffff;fill-opacity:1;fill-rule:nonzero;stroke:none"
               d="m 269.73,480.66 c -10.082,-15.469 -13.32,-30.941 -9.609,-48.988 3.75,-18.32 17.688,-34.332 7.609,-53.012 -7.378,-13.629 13.36,-25.738 20.711,-12.109 7.969,14.73 8.829,28.91 4.059,44.847 -6.41,21.481 -15.898,35.903 -2.07,57.153 8.48,13 -12.309,25.039 -20.7,12.109 z"
               inkscape:connector-curvature="0" /></g></g></g></g><g
       id="g3107"
       transform="matrix(0.06868915,0,0,0.06282981,38.584646,-12.784415)"
       style="fill:#ffffff"><g
         id="g3109"
         style="fill:#ffffff"><g
           id="g3111"
           clip-path="url(#clipPath3113)"
           transform="translate(-545.72034,205.9322)"
           style="fill:#ffffff"><path
             inkscape:connector-curvature="0"
             d="M 167.23,396.559 C 75,396.559 0,321.559 0,229.371 0,176.328 25.6211,125.93 68.5898,94.4883 L 62.4219,15.3906 C 62.2695,13.6289 63.0898,11.8711 64.5703,10.8594 65.3906,10.3086 66.3711,10 67.3789,10 c 0.7422,0 1.4922,0.1484 2.1094,0.4688 L 181.289,62.8906 c 85.902,7.1875 153.121,80.3084 153.121,166.4804 0,92.188 -75,167.188 -167.18,167.188 z M 179.609,72.7695 c -0.589,-0.039 -1.168,-0.1914 -1.757,-0.4687 L 73.0508,23.1602 78.7891,96.5195 c 0.1211,1.7188 -0.6993,3.4414 -2.1094,4.4495 C 34.9219,130.512 10,178.469 10,229.371 c 0,86.68 70.5117,157.188 157.23,157.188 86.641,0 157.149,-70.508 157.149,-157.188 C 324.41,147.93 260.781,79.1406 179.609,72.7695 z"
             style="fill:#ffffff;fill-opacity:1;fill-rule:nonzero;stroke:none"
             id="path3117" /></g></g></g></g></svg>