<?xml version="1.0" encoding="UTF-8" standalone="no"?>
<!-- Generator: Adobe Illustrator 17.1.0, SVG Export Plug-In . SVG Version: 6.00 Build 0)  -->

<svg
   xmlns:dc="http://purl.org/dc/elements/1.1/"
   xmlns:cc="http://creativecommons.org/ns#"
   xmlns:rdf="http://www.w3.org/1999/02/22-rdf-syntax-ns#"
   xmlns:svg="http://www.w3.org/2000/svg"
   xmlns="http://www.w3.org/2000/svg"
   xmlns:sodipodi="http://sodipodi.sourceforge.net/DTD/sodipodi-0.dtd"
   xmlns:inkscape="http://www.inkscape.org/namespaces/inkscape"
   version="1.1"
   id="Layer_1"
   x="0px"
   y="0px"
   viewBox="0 0 64 64"
   style="enable-background:new 0 0 64 64;"
   xml:space="preserve"
   inkscape:version="0.48.4 r9939"
   width="100%"
   height="100%"
   sodipodi:docname="placeholders.svg"><metadata
     id="metadata15"><rdf:RDF><cc:Work
         rdf:about=""><dc:format>image/svg+xml</dc:format><dc:type
           rdf:resource="http://purl.org/dc/dcmitype/StillImage" /></cc:Work></rdf:RDF></metadata><defs
     id="defs13"><filter
       id="filter4534"
       style="color-interpolation-filters:sRGB;"
       inkscape:label="Drop Shadow"><feFlood
         id="feFlood4536"
         flood-opacity="0.151"
         flood-color="rgb(0,0,0)"
         result="flood" /><feComposite
         id="feComposite4538"
         in2="SourceGraphic"
         in="flood"
         operator="in"
         result="composite1" /><feGaussianBlur
         id="feGaussianBlur4540"
         in="composite"
         stdDeviation="26.8"
         result="blur" /><feOffset
         id="feOffset4542"
         dx="1.4"
         dy="14.1"
         result="offset" /><feComposite
         id="feComposite4544"
         in2="offset"
         in="SourceGraphic"
         operator="over"
         result="composite2" /></filter><filter
       id="filter4546"
       style="color-interpolation-filters:sRGB;"
       inkscape:label="Drop Shadow"><feFlood
         id="feFlood4548"
         flood-opacity="0.151"
         flood-color="rgb(0,0,0)"
         result="flood" /><feComposite
         id="feComposite4550"
         in2="SourceGraphic"
         in="flood"
         operator="in"
         result="composite1" /><feGaussianBlur
         id="feGaussianBlur4552"
         in="composite"
         stdDeviation="26.8"
         result="blur" /><feOffset
         id="feOffset4554"
         dx="1.4"
         dy="14.1"
         result="offset" /><feComposite
         id="feComposite4556"
         in2="offset"
         in="SourceGraphic"
         operator="over"
         result="composite2" /></filter><filter
       id="filter4558"
       style="color-interpolation-filters:sRGB;"
       inkscape:label="Drop Shadow"><feFlood
         id="feFlood4560"
         flood-opacity="0.151"
         flood-color="rgb(0,0,0)"
         result="flood" /><feComposite
         id="feComposite4562"
         in2="SourceGraphic"
         in="flood"
         operator="in"
         result="composite1" /><feGaussianBlur
         id="feGaussianBlur4564"
         in="composite"
         stdDeviation="26.8"
         result="blur" /><feOffset
         id="feOffset4566"
         dx="1.4"
         dy="14.1"
         result="offset" /><feComposite
         id="feComposite4568"
         in2="offset"
         in="SourceGraphic"
         operator="over"
         result="composite2" /></filter></defs><sodipodi:namedview
     pagecolor="#ffffff"
     bordercolor="#666666"
     borderopacity="1"
     objecttolerance="10"
     gridtolerance="10"
     guidetolerance="10"
     inkscape:pageopacity="0"
     inkscape:pageshadow="2"
     inkscape:window-width="1024"
     inkscape:window-height="744"
     id="namedview11"
     showgrid="false"
     inkscape:zoom="3.6875"
     inkscape:cx="32"
     inkscape:cy="21.152542"
     inkscape:window-x="0"
     inkscape:window-y="24"
     inkscape:window-maximized="1"
     inkscape:current-layer="Layer_1" /><path
     inkscape:connector-curvature="0"
     style="fill:#ffffff;filter:url(#filter4534);stroke:#000000;stroke-opacity:1;stroke-width:0.4;stroke-miterlimit:3.79999995;stroke-dasharray:none"
     id="path5"
     d="m 18.801,35.91 c -0.5,0.259 -1.055,0.42 -1.648,0.42 -1.995,0 -3.661,-1.666 -3.661,-3.662 0,-1.298 0.71,-2.447 1.752,-3.098 -0.415,-1.198 -0.705,-2.456 -0.824,-3.833 -0.118,-1.367 -0.069,-2.73 0.126,-4.068 -3.217,0.763 -6.048,2.876 -7.618,5.849 -1.027,1.947 -1.473,4.176 -1.284,6.37 0.238,2.765 1.501,4.834 3.12,6.993 3.561,4.748 5.749,10.381 7.855,15.903 0.302,0.792 0.792,0.79 1.094,-10e-4 1.701,-4.453 3.469,-8.95 5.942,-13.029 -1.345,-2.625 -2.859,-5.172 -4.618,-7.518 -0.082,-0.11 -0.156,-0.217 -0.236,-0.326 z" /><path
     inkscape:connector-curvature="0"
     style="fill:#ffffff;filter:url(#filter4546);stroke:#000000;stroke-opacity:1;stroke-width:0.4;stroke-miterlimit:3.79999995;stroke-dasharray:none"
     id="path7"
     d="m 49.441,21.623 c 0.278,1.876 0.267,3.798 -0.063,5.668 -0.141,0.799 -0.348,1.539 -0.589,2.249 1.07,0.645 1.806,1.808 1.806,3.128 0,1.996 -1.666,3.662 -3.663,3.662 -0.611,0 -1.183,-0.171 -1.694,-0.445 -0.168,0.234 -0.336,0.467 -0.506,0.703 l -0.044,0.06 c -1.614,2.228 -3.009,4.61 -4.262,7.048 2.496,4.086 4.267,8.619 5.972,13.088 0.302,0.792 0.792,0.79 1.094,-10e-4 2.063,-5.401 4.206,-10.876 7.613,-15.578 1.446,-1.996 2.762,-3.799 3.204,-6.299 0.412,-2.335 0.091,-4.778 -0.92,-6.923 -1.526,-3.239 -4.518,-5.579 -7.948,-6.36 z" /><path
     inkscape:connector-curvature="0"
     style="fill:#ffffff;filter:url(#filter4558);stroke:#000000;stroke-opacity:1;stroke-width:0.4;stroke-miterlimit:3.79999995;stroke-dasharray:none"
     id="path9"
     d="m 43.783,34.485 c 1.254,-1.755 2.369,-3.467 3.072,-5.47 0.23,-0.656 0.424,-1.338 0.554,-2.071 0.326,-1.85 0.304,-3.749 -0.038,-5.589 C 47.129,20.05 46.731,18.773 46.163,17.568 43.603,12.138 38.005,8.569 32,8.569 c -5.757,0 -11.161,3.279 -13.847,8.368 -0.735,1.394 -1.243,2.895 -1.528,4.438 -0.254,1.377 -0.332,2.788 -0.211,4.189 0.107,1.24 0.378,2.371 0.756,3.443 0.699,1.981 1.8,3.748 3.106,5.53 0.122,0.166 0.239,0.331 0.363,0.498 1.61,2.147 3,4.436 4.26,6.8 2.515,4.716 4.478,9.757 6.378,14.738 0.204,0.536 0.472,0.803 0.74,0.803 0.268,0 0.537,-0.268 0.742,-0.805 1.912,-5.006 3.89,-10.052 6.418,-14.785 1.165,-2.182 2.437,-4.303 3.892,-6.312 0.241,-0.333 0.479,-0.662 0.714,-0.989 z M 32,28.873 c -2.702,0 -4.958,-2.257 -4.958,-4.959 0,-2.703 2.256,-4.959 4.958,-4.959 2.703,0 4.96,2.256 4.96,4.959 0,2.702 -2.257,4.959 -4.96,4.959 z" /></svg>