<?xml version="1.0" encoding="UTF-8" standalone="no"?>
<!-- Generator: Adobe Illustrator 18.0.0, SVG Export Plug-In . SVG Version: 6.00 Build 0)  -->

<svg
   xmlns:dc="http://purl.org/dc/elements/1.1/"
   xmlns:cc="http://creativecommons.org/ns#"
   xmlns:rdf="http://www.w3.org/1999/02/22-rdf-syntax-ns#"
   xmlns:svg="http://www.w3.org/2000/svg"
   xmlns="http://www.w3.org/2000/svg"
   xmlns:sodipodi="http://sodipodi.sourceforge.net/DTD/sodipodi-0.dtd"
   xmlns:inkscape="http://www.inkscape.org/namespaces/inkscape"
   version="1.1"
   id="Capa_1"
   x="0px"
   y="0px"
   viewBox="0 0 186.229 168.68"
   style="enable-background:new 0 0 186.229 168.68;"
   xml:space="preserve"
   inkscape:version="0.48.4 r9939"
   width="100%"
   height="100%"
   sodipodi:docname="search.svg"><metadata
     id="metadata47"><rdf:RDF><cc:Work
         rdf:about=""><dc:format>image/svg+xml</dc:format><dc:type
           rdf:resource="http://purl.org/dc/dcmitype/StillImage" /></cc:Work></rdf:RDF></metadata><defs
     id="defs45" /><sodipodi:namedview
     pagecolor="#ffffff"
     bordercolor="#666666"
     borderopacity="1"
     objecttolerance="10"
     gridtolerance="10"
     guidetolerance="10"
     inkscape:pageopacity="0"
     inkscape:pageshadow="2"
     inkscape:window-width="640"
     inkscape:window-height="480"
     id="namedview43"
     showgrid="false"
     inkscape:zoom="1.3990989"
     inkscape:cx="93.1145"
     inkscape:cy="84.34"
     inkscape:window-x="10"
     inkscape:window-y="34"
     inkscape:window-maximized="0"
     inkscape:current-layer="Capa_1" /><g
     id="g3"
     style="fill:#ffffff"><path
       style="fill:#ffffff"
       d="M65.965,17.875c-26.514,0-48.084,21.567-48.084,48.076c0,26.524,21.57,48.104,48.084,48.104   c26.524,0,48.104-21.579,48.104-48.104C114.068,39.442,92.489,17.875,65.965,17.875z M65.965,110.055   c-24.308,0-44.084-19.785-44.084-44.104c0-24.304,19.776-44.076,44.084-44.076c24.318,0,44.104,19.772,44.104,44.076   C110.068,90.27,90.283,110.055,65.965,110.055z"
       id="path5" /><path
       style="fill:#ffffff"
       d="M184.699,130.194l-6.851-5.934c-11.044-9.564-34.025-29.468-34.624-30.005   c-1.118-1.027-2.462-1.593-3.784-1.593c-1.262,0-2.391,0.502-3.151,1.382c-0.549,0.608-1.763,2.009-3.363,3.857l-0.03,0.034   c-2.836-2.405-5.073-4.297-6.542-5.537c3.705-8.414,5.582-17.305,5.582-26.448C131.936,29.586,102.341,0,65.965,0   C29.592,0,0,29.586,0,65.951c0,36.375,29.592,65.969,65.965,65.969c15.425,0,30.354-5.444,42.236-15.366   c1.312,1.125,2.979,2.552,4.939,4.227c-1.632,1.878-3.286,3.771-3.423,3.923c-0.952,0.907-1.442,1.927-1.456,3.029   c-0.016,1.188,0.541,2.354,1.679,3.495c0.082,0.08,0.275,0.267,41.539,35.879l0.7,0.604c0.684,0.607,1.743,0.97,2.833,0.97   c1.069,0,2.025-0.366,2.681-1.021c0.876-0.864,26.291-30.008,27.469-31.499C186.735,134.165,186.558,131.827,184.699,130.194z    M182.022,133.681c-0.928,1.174-24.803,28.562-27.019,30.999c-0.106-0.001-0.206-0.023-0.262-0.042l-0.649-0.56   c-25.836-22.298-40.932-35.334-41.345-35.699c-0.286-0.287-0.408-0.478-0.459-0.574c0.032-0.044,0.085-0.107,0.167-0.187   c0.28-0.26,4.835-5.517,5.028-5.74c0.349-0.403,0.522-0.929,0.482-1.46s-0.29-1.025-0.696-1.371   c-3.405-2.905-6.08-5.196-7.763-6.645c-0.756-0.652-1.878-0.647-2.626,0.015c-11.356,9.997-25.888,15.503-40.917,15.503   C31.797,127.92,4,100.121,4,65.951C4,31.791,31.797,4,65.965,4c34.171,0,61.971,27.791,61.971,61.951   c0,9.063-1.965,17.863-5.841,26.155c-0.384,0.819-0.168,1.795,0.524,2.378c1.435,1.206,4.686,3.953,9.198,7.783   c0.835,0.708,2.086,0.612,2.806-0.216l1.326-1.531c1.575-1.818,2.769-3.197,3.336-3.827c0.008-0.008,0.058-0.03,0.155-0.03   c0.115,0,0.534,0.039,1.039,0.502c0.157,0.152,5.396,4.698,34.751,30.12l6.838,5.923c0.092,0.08,0.166,0.145,0.159,0.138   C182.211,133.393,182.162,133.503,182.022,133.681z"
       id="path7" /><path
       style="fill:#ffffff"
       d="M38.509,43.965c0.654-0.889,0.466-2.14-0.423-2.795c-0.89-0.656-2.141-0.467-2.797,0.422   c-0.198,0.269-19.586,27.157,3.231,49.975c0.391,0.391,0.902,0.586,1.414,0.586s1.023-0.195,1.414-0.586   c0.781-0.781,0.781-2.047,0-2.828C20.989,68.379,37.784,44.952,38.509,43.965z"
       id="path9" /><path
       style="fill:#ffffff"
       d="M155.979,152.367l-34.619-27.938c-0.859-0.692-2.118-0.56-2.812,0.301   c-0.693,0.859-0.559,2.118,0.301,2.812l34.619,27.938c0.37,0.298,0.813,0.443,1.255,0.443c0.584,0,1.162-0.254,1.558-0.744   C156.974,154.32,156.839,153.062,155.979,152.367z"
       id="path11" /></g><g
     id="g13"
     style="fill:#ffffff" /><g
     id="g15"
     style="fill:#ffffff" /><g
     id="g17"
     style="fill:#ffffff" /><g
     id="g19"
     style="fill:#ffffff" /><g
     id="g21"
     style="fill:#ffffff" /><g
     id="g23"
     style="fill:#ffffff" /><g
     id="g25"
     style="fill:#ffffff" /><g
     id="g27"
     style="fill:#ffffff" /><g
     id="g29"
     style="fill:#ffffff" /><g
     id="g31"
     style="fill:#ffffff" /><g
     id="g33"
     style="fill:#ffffff" /><g
     id="g35"
     style="fill:#ffffff" /><g
     id="g37"
     style="fill:#ffffff" /><g
     id="g39"
     style="fill:#ffffff" /><g
     id="g41"
     style="fill:#ffffff" /></svg>